Coordinates
version=1
nRows=21
nColumns=12
inDegrees=yes

Units are S.I. units (second, meters, Newtons, ...)
Angles are in degrees

endheader
time	SC_y	SC_z	SC_x	AC_y	AC_z	AC_x	GH_y	GH_z	GH_yy	EL_x	PS_y
       0.0              -42.76          10.27          26.55          58.61          -1.08          -12.3          81.37         -16.97         -15.46          65.01          34.17
  0.001827              -42.77          10.27          26.56          58.61         -1.081          -12.3          81.34         -16.96         -15.44          65.01          34.18
  0.003654              -42.77          10.27          26.56          58.61         -1.082          -12.3           81.3         -16.95         -15.41          65.01          34.18
  0.005481              -42.77          10.28          26.57          58.62         -1.084         -12.29          81.27         -16.93         -15.38          65.02          34.19
  0.007308              -42.77          10.28          26.58          58.62         -1.085         -12.29          81.23         -16.92         -15.35          65.02           34.2
  0.009135              -42.77          10.29          26.58          58.62         -1.087         -12.29          81.19          -16.9         -15.32          65.03          34.21
   0.01096              -42.77          10.29          26.59          58.62         -1.088         -12.29          81.15         -16.89         -15.28          65.04          34.22
   0.01279              -42.77           10.3           26.6          58.62          -1.09         -12.28           81.1         -16.87         -15.24          65.04          34.23
   0.01462              -42.77           10.3          26.61          58.62         -1.092         -12.28          81.05         -16.85          -15.2          65.05          34.25
   0.01644              -42.77          10.31          26.62          58.63         -1.094         -12.28           81.0         -16.83         -15.16          65.06          34.26
   0.01827              -42.77          10.32          26.63          58.63         -1.096         -12.27          80.94         -16.81         -15.11          65.06          34.27
    0.0201              -42.78          10.32          26.64          58.63         -1.098         -12.27          80.88         -16.79         -15.06          65.07          34.29
   0.02192              -42.78          10.33          26.65          58.63         -1.101         -12.27          80.81         -16.76         -15.01          65.08           34.3
   0.02375              -42.78          10.34          26.67          58.64         -1.103         -12.26          80.74         -16.73         -14.95          65.09          34.32
   0.02558              -42.78          10.35          26.68          58.64         -1.106         -12.26          80.66          -16.7         -14.89           65.1          34.34
   0.02741              -42.78          10.36           26.7          58.64         -1.109         -12.25          80.58         -16.67         -14.82          65.11          34.36
   0.02923              -42.78          10.37          26.71          58.65         -1.113         -12.25          80.49         -16.64         -14.75          65.12          34.38
   0.03106              -42.79          10.38          26.73          58.65         -1.117         -12.24          80.39          -16.6         -14.67          65.14          34.41
   0.03289              -42.79          10.39          26.75          58.65         -1.121         -12.23          80.28         -16.56         -14.58          65.15          34.43
   0.03471              -42.79          10.41          26.77          58.66         -1.125         -12.23          80.16         -16.51         -14.48          65.17          34.46
   0.03654              -42.79          10.42           26.8          58.66          -1.13         -12.22          80.03         -16.47         -14.38          65.19          34.49
